<?xml version="1.0" encoding="UTF-8" standalone="no"?>
<svg
   width="112"
   height="28"
   viewBox="0 0 112 28"
   fill="none"
   version="1.1"
   id="svg3"
   xmlns="http://www.w3.org/2000/svg"
   xmlns:svg="http://www.w3.org/2000/svg">
  <g
     clip-path="url(#clip0)"
     id="g3">
    <path
       d="M 25.402,1.37404 C 25.5367,1.22411 25.6115,1.0288 25.6118,0.826128 25.6118,0.608229 25.5268,0.39915 25.3752,0.24442 25.2236,0.0896895 25.0178,0.00183968 24.8025,0 h -0.01 L 11.277,0.00697453 H 11.2671 C 11.0753,0.00694157 10.8855,0.0470626 10.7097,0.124815 10.534,0.202568 10.376,0.316273 10.2457,0.458788 9.3537,1.37016 7.06896,3.67108 2.94663,7.6196 -2.56614,12.8995 1.34716,18.112 1.34716,18.112 l 5.04189,5.1033 C 5.2061,21.9358 6.6578,20.2487 6.6578,20.2487 L 25.3499,1.43371 c 0.0138,-0.01317 0.0276,-0.02712 0.0406,-0.04107 l 0.013,-0.01395 z"
       fill="#0094ff"
       id="path2" />
    <path
       d="M 26.0333,26.6213 26.0287,26.6166 15.0078,15.4755 c -0.078,-0.0778 -0.1705,-0.1392 -0.272,-0.1807 -0.1016,-0.0415 -0.2102,-0.0623 -0.3198,-0.0612 -0.1095,0.0012 -0.2177,0.0242 -0.3183,0.0679 -0.1007,0.0436 -0.1919,0.107 -0.2683,0.1864 L 8.00119,21.3561 C 6.5227,23.1525 7.4101,24.0778 7.4101,24.0778 l 3.4332,3.5998 c 0.0878,0.1006 0.1957,0.181 0.3167,0.236 0.1209,0.0549 0.2521,0.083 0.3847,0.0825 h 13.8608 c 0.0092,0 0.0176,0 0.0275,0 0.157,-10e-4 0.3103,-0.0478 0.4415,-0.1348 0.1312,-0.0871 0.2348,-0.2107 0.2982,-0.356 0.0635,-0.1453 0.0841,-0.306 0.0593,-0.4629 -0.0247,-0.1568 -0.0937,-0.3031 -0.1987,-0.4211 z"
       fill="#3f4254"
       id="path3" />
  </g>
  <defs
     id="defs3">
    <clipPath
       id="clip0">
      <rect
         width="26.25"
         height="28"
         fill="#ffffff"
         id="rect3"
         x="0"
         y="0" />
    </clipPath>
  </defs>
  <text
     xml:space="preserve"
     style="font-size:20px;fill:#3f4254;fill-opacity:1"
     x="26.767467"
     y="19.809412"
     id="text3"><tspan
       id="tspan3"
       x="26.767467"
       y="19.809412"
       style="font-style:normal;font-variant:normal;font-weight:bold;font-stretch:normal;font-size:20px;font-family:Calibri;-inkscape-font-specification:'Calibri Bold';fill:#3f4254;fill-opacity:1">Admin<tspan
   style="font-style:normal;font-variant:normal;font-weight:300;font-stretch:normal;font-family:Calibri;-inkscape-font-specification:'Calibri Light'"
   id="tspan1">Obr</tspan></tspan></text>
</svg>
