<?xml version="1.0" encoding="UTF-8" standalone="no"?>
<svg
   width="136"
   height="22"
   viewBox="0 0 136 22"
   fill="none"
   version="1.1"
   id="svg4"
   sodipodi:docname="default-logo-dark.svg"
   inkscape:version="1.3.2 (091e20e, 2023-11-25, custom)"
   xmlns:inkscape="http://www.inkscape.org/namespaces/inkscape"
   xmlns:sodipodi="http://sodipodi.sourceforge.net/DTD/sodipodi-0.dtd"
   xmlns="http://www.w3.org/2000/svg"
   xmlns:svg="http://www.w3.org/2000/svg">
  <defs
     id="defs4">
    <clipPath
       id="clip0">
      <rect
         width="26.25"
         height="28"
         fill="#ffffff"
         id="rect3"
         x="0"
         y="0" />
    </clipPath>
  </defs>
  <sodipodi:namedview
     id="namedview4"
     pagecolor="#ffffff"
     bordercolor="#000000"
     borderopacity="0.25"
     inkscape:showpageshadow="2"
     inkscape:pageopacity="0.0"
     inkscape:pagecheckerboard="0"
     inkscape:deskcolor="#d1d1d1"
     inkscape:zoom="9.9779412"
     inkscape:cx="68"
     inkscape:cy="10.974208"
     inkscape:window-width="1920"
     inkscape:window-height="991"
     inkscape:window-x="-9"
     inkscape:window-y="-9"
     inkscape:window-maximized="1"
     inkscape:current-layer="svg4" />
  <path
     d="M40.054 17H43.046L43.42 11.526C43.488 10.608 43.42 9.486 43.42 9.486H43.454C43.454 9.486 43.862 10.761 44.134 11.526L45.409 15.045H47.959L49.234 11.526C49.506 10.761 49.914 9.486 49.914 9.486H49.948C49.948 9.486 49.88 10.608 49.948 11.526L50.322 17H53.297L52.311 4.845H49.081L47.313 9.979C47.041 10.761 46.701 11.985 46.701 11.985H46.667C46.667 11.985 46.327 10.761 46.055 9.979L44.287 4.845H41.057L40.054 17ZM56.2944 17H64.1484V14.45H59.2694V12.155H62.9754V9.605H59.2694V7.395H63.9104V4.845H56.2944V17ZM69.1276 17H72.1026V7.395H75.7916V4.845H65.4386V7.395H69.1276V17ZM77.8008 17H80.7758V12.903H82.1698L84.3288 17H87.6438L85.2808 12.75C84.9918 12.24 84.8218 12.019 84.8218 12.019V11.985C86.0288 11.373 86.6408 9.962 86.6408 8.67C86.6408 6.902 85.7738 5.661 84.3968 5.134C83.8698 4.93 83.2748 4.845 82.0338 4.845H77.8008V17ZM80.7758 10.353V7.395H81.7788C83.2748 7.395 83.6148 7.939 83.6148 8.857C83.6148 9.826 83.0198 10.353 82.0678 10.353H80.7758ZM89.0325 10.846C89.0325 14.416 91.7185 17.204 95.3905 17.204C99.0625 17.204 101.748 14.416 101.748 10.846C101.748 7.361 99.0625 4.641 95.3905 4.641C91.7185 4.641 89.0325 7.361 89.0325 10.846ZM92.1095 10.846C92.1095 8.857 93.5715 7.361 95.3905 7.361C97.2095 7.361 98.6715 8.857 98.6715 10.846C98.6715 12.92 97.2095 14.484 95.3905 14.484C93.5715 14.484 92.1095 12.92 92.1095 10.846ZM104.288 17H107.263V11.339C107.263 10.574 107.127 9.265 107.127 9.265H107.161C107.161 9.265 107.705 10.54 108.181 11.339L111.564 17H114.556V4.845H111.581V10.523C111.581 11.288 111.717 12.597 111.717 12.597H111.683C111.683 12.597 111.139 11.322 110.663 10.523L107.297 4.845H104.288V17ZM117.929 17H120.904V4.845H117.929V17ZM123.434 10.897C123.434 14.501 126.001 17.204 129.809 17.204C132.988 17.204 134.705 15.164 134.705 15.164L133.175 12.988C133.175 12.988 131.781 14.484 129.945 14.484C127.701 14.484 126.511 12.631 126.511 10.829C126.511 9.078 127.616 7.361 129.945 7.361C131.628 7.361 132.988 8.602 132.988 8.602L134.365 6.358C134.365 6.358 132.818 4.641 129.809 4.641C126.154 4.641 123.434 7.361 123.434 10.897Z"
     fill="white"
     id="path1" />
  <g
     clip-path="url(#clip0)"
     id="g3"
     transform="matrix(0.7813374,0,0,0.7813374,3.2171881,0.09296157)">
    <path
       d="M 25.402,1.37404 C 25.5367,1.22411 25.6115,1.0288 25.6118,0.826128 25.6118,0.608229 25.5268,0.39915 25.3752,0.24442 25.2236,0.0896895 25.0178,0.00183968 24.8025,0 h -0.01 L 11.277,0.00697453 H 11.2671 C 11.0753,0.00694157 10.8855,0.0470626 10.7097,0.124815 10.534,0.202568 10.376,0.316273 10.2457,0.458788 9.3537,1.37016 7.06896,3.67108 2.94663,7.6196 -2.56614,12.8995 1.34716,18.112 1.34716,18.112 l 5.04189,5.1033 C 5.2061,21.9358 6.6578,20.2487 6.6578,20.2487 L 25.3499,1.43371 c 0.0138,-0.01317 0.0276,-0.02712 0.0406,-0.04107 l 0.013,-0.01395 z"
       fill="#0094ff"
       id="path2-8" />
    <path
       d="M 26.0333,26.6213 26.0287,26.6166 15.0078,15.4755 c -0.078,-0.0778 -0.1705,-0.1392 -0.272,-0.1807 -0.1016,-0.0415 -0.2102,-0.0623 -0.3198,-0.0612 -0.1095,0.0012 -0.2177,0.0242 -0.3183,0.0679 -0.1007,0.0436 -0.1919,0.107 -0.2683,0.1864 L 8.00119,21.3561 C 6.5227,23.1525 7.4101,24.0778 7.4101,24.0778 l 3.4332,3.5998 c 0.0878,0.1006 0.1957,0.181 0.3167,0.236 0.1209,0.0549 0.2521,0.083 0.3847,0.0825 h 13.8608 c 0.0092,0 0.0176,0 0.0275,0 0.157,-10e-4 0.3103,-0.0478 0.4415,-0.1348 0.1312,-0.0871 0.2348,-0.2107 0.2982,-0.356 0.0635,-0.1453 0.0841,-0.306 0.0593,-0.4629 -0.0247,-0.1568 -0.0937,-0.3031 -0.1987,-0.4211 z"
       fill="#3f4254"
       id="path3-3" />
  </g>
</svg>
